<svg width="524" height="156" viewBox="0 0 524 156" fill="none" xmlns="http://www.w3.org/2000/svg">
<rect width="524" height="156" fill="#FFC107"/>
<path fill-rule="evenodd" clip-rule="evenodd" d="M27.2554 54.5116C25.7714 63.9595 31.0175 73.2559 36.1814 82.1738C41.6041 91.5396 47.0268 100.905 52.4498 110.271C59.1552 121.853 67.7569 134.706 85.9644 139.176C103.714 143.534 123.453 138.105 140.075 132.237C150.767 128.462 161.404 124.382 169.794 118.745C179.362 112.317 185.534 104.173 190.38 95.9004C201.689 76.5932 205.702 53.3975 186.707 36.6635C148.205 2.74692 34.9549 5.47719 27.2554 54.5116Z" fill="#F6F8FA"/>
<path d="M92.669 71.008H81.293V121.984C81.293 122.464 81.101 122.944 80.717 123.424C80.429 123.808 79.949 124 79.277 124H78.413C77.741 124 77.261 123.808 76.973 123.424C76.685 122.944 76.541 122.464 76.541 121.984V71.008H65.021C64.541 71.008 64.109 70.864 63.725 70.576C63.341 70.288 63.149 69.76 63.149 68.992V67.84C63.149 66.496 63.773 65.824 65.021 65.824H92.669C93.917 65.824 94.541 66.496 94.541 67.84V68.992C94.541 70.336 93.917 71.008 92.669 71.008ZM105.743 124H104.591C104.111 124 103.727 123.76 103.439 123.28C103.151 122.8 103.007 122.32 103.007 121.84V67.984C103.007 66.544 103.535 65.824 104.591 65.824H105.743C106.991 65.824 107.615 66.544 107.615 67.984V121.84C107.615 123.28 106.991 124 105.743 124ZM162.087 124H160.935C159.687 124 159.063 123.328 159.063 121.984V77.92L145.095 110.608C144.615 111.472 143.847 111.904 142.791 111.904H141.495C140.439 111.904 139.719 111.472 139.335 110.608L125.367 77.632V121.984C125.367 122.464 125.223 122.944 124.935 123.424C124.647 123.808 124.167 124 123.495 124H122.343C120.999 124 120.327 123.328 120.327 121.984V67.984C120.327 66.544 120.999 65.824 122.343 65.824H124.503C125.367 65.824 125.943 66.208 126.231 66.976L142.215 104.416L157.911 66.976C158.199 66.208 158.823 65.824 159.783 65.824H162.087C162.759 65.824 163.239 66.064 163.527 66.544C163.815 67.024 163.959 67.504 163.959 67.984V121.984C163.959 122.464 163.815 122.944 163.527 123.424C163.239 123.808 162.759 124 162.087 124ZM202.906 124H179.866C178.714 124 178.138 123.328 178.138 121.984V67.984C178.138 66.544 178.714 65.824 179.866 65.824H202.906C204.154 65.824 204.778 66.496 204.778 67.84V68.992C204.778 69.664 204.538 70.192 204.058 70.576C203.674 70.864 203.29 71.008 202.906 71.008H182.746V91.744H201.034C201.418 91.744 201.802 91.936 202.186 92.32C202.666 92.608 202.906 93.136 202.906 93.904V94.912C202.906 96.256 202.282 96.928 201.034 96.928H182.746V118.816H202.906C204.154 118.816 204.778 119.488 204.778 120.832V121.984C204.778 122.656 204.538 123.184 204.058 123.568C203.674 123.856 203.29 124 202.906 124ZM249.464 124H248.456C247.304 124 246.584 123.52 246.296 122.56L229.592 95.488L222.248 105.712V121.984C222.248 122.464 222.056 122.944 221.672 123.424C221.384 123.808 220.904 124 220.232 124H219.224C217.88 124 217.208 123.328 217.208 121.984V67.984C217.208 66.544 217.88 65.824 219.224 65.824H220.232C221 65.824 221.528 66.064 221.816 66.544C222.104 67.024 222.248 67.504 222.248 67.984V97.504L243.416 67.264C244.088 66.304 244.808 65.824 245.576 65.824H247.16C247.928 65.824 248.408 66.256 248.6 67.12C248.792 67.888 248.744 68.464 248.456 68.848L232.904 91.168L250.904 120.976C251.384 121.744 251.528 122.464 251.336 123.136C251.144 123.712 250.52 124 249.464 124ZM287.562 124H264.522C263.37 124 262.794 123.328 262.794 121.984V67.984C262.794 66.544 263.37 65.824 264.522 65.824H287.562C288.81 65.824 289.434 66.496 289.434 67.84V68.992C289.434 69.664 289.194 70.192 288.714 70.576C288.33 70.864 287.946 71.008 287.562 71.008H267.402V91.744H285.69C286.074 91.744 286.458 91.936 286.842 92.32C287.322 92.608 287.562 93.136 287.562 93.904V94.912C287.562 96.256 286.938 96.928 285.69 96.928H267.402V118.816H287.562C288.81 118.816 289.434 119.488 289.434 120.832V121.984C289.434 122.656 289.194 123.184 288.714 123.568C288.33 123.856 287.946 124 287.562 124ZM327.64 124H304.6C303.448 124 302.872 123.328 302.872 121.984V67.984C302.872 66.544 303.448 65.824 304.6 65.824H327.64C328.888 65.824 329.512 66.496 329.512 67.84V68.992C329.512 69.664 329.272 70.192 328.792 70.576C328.408 70.864 328.024 71.008 327.64 71.008H307.48V91.744H325.768C326.152 91.744 326.536 91.936 326.92 92.32C327.4 92.608 327.64 93.136 327.64 93.904V94.912C327.64 96.256 327.016 96.928 325.768 96.928H307.48V118.816H327.64C328.888 118.816 329.512 119.488 329.512 120.832V121.984C329.512 122.656 329.272 123.184 328.792 123.568C328.408 123.856 328.024 124 327.64 124ZM361.814 102.688H347.27V121.984C347.27 122.464 347.126 122.944 346.838 123.424C346.55 123.808 346.07 124 345.398 124H344.246C342.998 124 342.374 123.328 342.374 121.984V67.984C342.374 66.544 342.998 65.824 344.246 65.824H361.814C365.462 65.824 368.294 67.024 370.31 69.424C372.326 71.728 373.334 74.944 373.334 79.072V89.44C373.334 93.472 372.326 96.688 370.31 99.088C368.294 101.488 365.462 102.688 361.814 102.688ZM368.726 79.072C368.726 73.696 366.422 71.008 361.814 71.008H347.27V97.36H361.814C364.022 97.36 365.702 96.736 366.854 95.488C368.102 94.144 368.726 92.08 368.726 89.296V79.072ZM411.312 124H388.272C387.12 124 386.544 123.328 386.544 121.984V67.984C386.544 66.544 387.12 65.824 388.272 65.824H411.312C412.56 65.824 413.184 66.496 413.184 67.84V68.992C413.184 69.664 412.944 70.192 412.464 70.576C412.08 70.864 411.696 71.008 411.312 71.008H391.152V91.744H409.44C409.824 91.744 410.208 91.936 410.592 92.32C411.072 92.608 411.312 93.136 411.312 93.904V94.912C411.312 96.256 410.688 96.928 409.44 96.928H391.152V118.816H411.312C412.56 118.816 413.184 119.488 413.184 120.832V121.984C413.184 122.656 412.944 123.184 412.464 123.568C412.08 123.856 411.696 124 411.312 124ZM456.142 124H454.558C453.598 124 452.974 123.616 452.686 122.848L443.47 100.672H430.654V121.984C430.654 123.328 429.934 124 428.494 124H427.63C427.15 124 426.67 123.904 426.19 123.712C425.806 123.424 425.614 122.848 425.614 121.984V67.84C425.614 66.496 426.286 65.824 427.63 65.824H444.91C448.654 65.824 451.534 66.976 453.55 69.28C455.662 71.488 456.718 74.752 456.718 79.072V87.424C456.718 90.592 456.046 93.232 454.702 95.344C453.454 97.36 451.342 99.04 448.366 100.384L457.438 121.264C457.534 121.648 457.582 122.224 457.582 122.992C457.678 123.664 457.198 124 456.142 124ZM451.966 79.072C451.966 73.6 449.614 70.864 444.91 70.864H430.654V95.488H444.91C449.614 95.488 451.966 92.8 451.966 87.424V79.072Z" fill="black"/>
<path d="M489 77H463V64.1L471.667 55.5L463 46.9V34H489V46.9L480.333 55.5L489 64.1V77ZM467.333 45.825L476 54.425L484.667 45.825V38.3H467.333V45.825ZM476 56.575L467.333 65.175V72.7H484.667V65.175L476 56.575ZM480.333 68.4H471.667V66.68L476 62.38L480.333 66.68V68.4Z" fill="white"/>
<mask id="mask0_15_17" style="mask-type:alpha" maskUnits="userSpaceOnUse" x="64" y="24" width="76" height="31">
<path d="M64 24H140V54.1132H64V24Z" fill="black"/>
</mask>
<g mask="url(#mask0_15_17)">
<path fill-rule="evenodd" clip-rule="evenodd" d="M87.8363 39.4752L91.5059 34.5188H87.9267L85.7541 37.4729L83.5709 34.5188H83.077H79.9606H76.0703V36.7385C75.1527 35.2757 73.5137 34.3396 71.5637 34.3396C70.1639 34.3396 68.8526 34.8449 67.8698 35.7633C66.8375 36.7307 66.2688 38.074 66.2688 39.5496C66.2688 42.5193 68.5445 44.7586 71.5637 44.7586C72.9635 44.7586 74.2749 44.2533 75.2557 43.3349C75.5716 43.0392 75.8438 42.7083 76.0703 42.3509V44.5794H80.0685H83.2899H83.6807L85.863 41.6254L88.0356 44.5794H91.6148L87.8363 39.4752ZM93.8963 39.0551C93.8963 47.3719 87.2035 54.1132 78.9486 54.1132C70.6937 54.1132 64 47.3719 64 39.0551C64 30.7403 70.6937 24 78.9486 24C87.2035 24 93.8963 30.7403 93.8963 39.0551ZM78.9078 37.3789V38.1328V38.4148H81.5421L82.4423 39.6162L81.6004 40.7402H78.9078V40.9919V41.7203H82.209L83.7798 39.6211L82.1011 37.3789H78.9078ZM71.5637 37.1997C70.163 37.1997 69.1073 38.2092 69.1073 39.5496C69.1073 40.889 70.163 41.8995 71.5637 41.8995C72.9635 41.8995 74.0202 40.889 74.0202 39.5496C74.0202 38.2092 72.9635 37.1997 71.5637 37.1997ZM118.947 44.7018H120.269V34.3876H118.947V44.7018ZM131.532 43.048L131.613 42.9227L130.532 42.1472L130.443 42.2853C129.827 43.2439 128.939 43.7099 127.728 43.7099C125.151 43.7099 123.802 41.6156 123.802 39.5447C123.802 37.4748 125.151 35.3795 127.728 35.3795C128.727 35.3795 129.785 36.0198 130.146 36.6181L130.235 36.7649L131.384 35.9023L131.285 35.776C130.473 34.7323 129.175 34.133 127.728 34.133C126.251 34.133 124.899 34.6784 123.92 35.6683C122.938 36.6612 122.397 38.0378 122.397 39.5447C122.397 41.0516 122.938 42.4292 123.92 43.4221C124.899 44.412 126.251 44.9564 127.728 44.9564C129.297 44.9564 130.791 44.2073 131.532 43.048ZM115.413 39.5447C115.413 37.4748 114.064 35.3795 111.488 35.3795C108.912 35.3795 107.563 37.4748 107.563 39.5447C107.563 41.6156 108.912 43.7099 111.488 43.7099C114.064 43.7099 115.413 41.6156 115.413 39.5447ZM116.818 39.5447C116.818 41.0516 116.277 42.4292 115.296 43.4221C114.317 44.412 112.965 44.9564 111.488 44.9564C110.011 44.9564 108.659 44.412 107.68 43.4221C106.699 42.4292 106.158 41.0516 106.158 39.5447C106.158 38.0378 106.699 36.6612 107.68 35.6683C108.659 34.6784 110.011 34.133 111.488 34.133C112.965 34.133 114.317 34.6784 115.296 35.6683C116.277 36.6612 116.818 38.0378 116.818 39.5447ZM134.685 43.4554V39.9706H139.495V38.7242H134.685V35.634H139.831V34.3876H133.364V44.7018H140V43.4554H134.685ZM101.498 44.7018L105.489 34.3876H104.06L100.902 42.6162L97.839 34.3876H96.3828L100.274 44.7018H101.498ZM121.695 49.3869C121.541 49.6268 121.319 49.7433 121.014 49.7433C120.363 49.7433 120.022 49.2127 120.022 48.6888C120.022 48.165 120.363 47.6343 121.014 47.6343C121.263 47.6343 121.527 47.7919 121.616 47.9398L121.663 48.0171L122.035 47.7371L121.984 47.6715C121.761 47.3866 121.409 47.2231 121.014 47.2231C120.191 47.2231 119.571 47.8536 119.571 48.6888C119.571 49.524 120.191 50.1546 121.014 50.1546C121.441 50.1546 121.847 49.9499 122.051 49.6337L122.092 49.5671L121.741 49.3145L121.695 49.3869ZM115.563 47.6999H116.438V50.087H116.867V47.6999H117.742V47.2896H115.563V47.6999ZM128.21 47.6999H129.085V50.087H129.514V47.6999H130.389V47.2896H128.21V47.6999ZM123.144 48.8416H124.411V48.4313H123.144V47.6999H124.499V47.2896H122.715V50.087H124.544V49.6768H123.144V48.8416ZM131.429 48.8416H132.695V48.4313H131.429V47.6999H132.783V47.2896H131V50.087H132.828V49.6768H131.429V48.8416ZM134.377 48.4538C134.746 48.4538 134.934 48.3265 134.934 48.0749C134.934 47.8262 134.746 47.6999 134.377 47.6999H133.987V48.4538H134.377ZM134.769 48.819L135.533 50.087H135.016L134.301 48.8641H133.987V50.087H133.557V47.2896H134.444C135.042 47.2896 135.386 47.5765 135.386 48.0749C135.386 48.4577 135.147 48.7388 134.769 48.819ZM127.17 49.3527L125.729 47.2896H125.272V50.087H125.702V48.0044L127.142 50.087H127.599V47.2896H127.17V49.3527ZM109.638 47.2896H107.459V47.6999H108.334V50.087H108.763V47.6999H109.638V47.2896ZM103.333 48.6888C103.333 48.165 102.993 47.6343 102.342 47.6343C101.69 47.6343 101.349 48.165 101.349 48.6888C101.349 49.2127 101.69 49.7433 102.342 49.7433C102.993 49.7433 103.333 49.2127 103.333 48.6888ZM103.785 48.6888C103.785 49.524 103.165 50.1546 102.342 50.1546C101.518 50.1546 100.898 49.524 100.898 48.6888C100.898 47.8536 101.518 47.2231 102.342 47.2231C103.165 47.2231 103.785 47.8536 103.785 48.6888ZM100.054 49.3869C99.9008 49.6268 99.6792 49.7433 99.3749 49.7433C98.7236 49.7433 98.3824 49.2127 98.3824 48.6888C98.3824 48.165 98.7236 47.6343 99.3749 47.6343C99.6238 47.6343 99.8862 47.7919 99.9766 47.9398L100.023 48.0171L100.395 47.7371L100.343 47.6715C100.12 47.3866 99.7686 47.2231 99.3749 47.2231C98.5516 47.2231 97.9304 47.8536 97.9304 48.6888C97.9304 49.524 98.5516 50.1546 99.3749 50.1546C99.8007 50.1546 100.208 49.9499 100.411 49.6337L100.453 49.5671L100.102 49.3145L100.054 49.3869ZM111.434 48.9855L110.991 47.9016L110.546 48.9855H111.434ZM111.175 47.2896L112.382 50.087H111.893L111.605 49.3957H110.378L110.09 50.087H109.6L110.808 47.2896H111.175ZM114.846 49.3869C114.692 49.6268 114.469 49.7433 114.165 49.7433C113.514 49.7433 113.173 49.2127 113.173 48.6888C113.173 48.165 113.514 47.6343 114.165 47.6343C114.415 47.6343 114.677 47.7919 114.767 47.9398L114.813 48.0171L115.186 47.7371L115.134 47.6715C114.913 47.3866 114.559 47.2231 114.165 47.2231C113.342 47.2231 112.722 47.8536 112.722 48.6888C112.722 49.524 113.342 50.1546 114.165 50.1546C114.592 50.1546 114.998 49.9499 115.201 49.6337L115.243 49.5671L114.892 49.3145L114.846 49.3869ZM106.419 47.2896H106.848V50.087H106.391L104.951 48.0044V50.087H104.521V47.2896H104.978L106.419 49.3527V47.2896Z" fill="black"/>
</g>
</svg>
