<svg width="328" height="262" viewBox="0 0 328 262" fill="none" xmlns="http://www.w3.org/2000/svg">
<rect width="328" height="262" fill="#FFC107"/>
<path fill-rule="evenodd" clip-rule="evenodd" d="M37.2554 80.5116C35.7714 89.9595 41.0175 99.2559 46.1814 108.174C51.6041 117.54 57.0268 126.905 62.4498 136.271C69.1552 147.853 77.7569 160.706 95.9644 165.176C113.714 169.534 133.453 164.105 150.075 158.237C160.767 154.462 171.404 150.382 179.794 144.745C189.362 138.317 195.534 130.173 200.38 121.9C211.689 102.593 215.702 79.3975 196.707 62.6635C158.205 28.7469 44.9549 31.4772 37.2554 80.5116Z" fill="#F6F8FA"/>
<path d="M91.5987 74.008H80.2227V124.984C80.2227 125.464 80.0307 125.944 79.6467 126.424C79.3587 126.808 78.8787 127 78.2067 127H77.3427C76.6707 127 76.1907 126.808 75.9027 126.424C75.6147 125.944 75.4707 125.464 75.4707 124.984V74.008H63.9507C63.4707 74.008 63.0387 73.864 62.6547 73.576C62.2707 73.288 62.0787 72.76 62.0787 71.992V70.84C62.0787 69.496 62.7027 68.824 63.9507 68.824H91.5987C92.8467 68.824 93.4707 69.496 93.4707 70.84V71.992C93.4707 73.336 92.8467 74.008 91.5987 74.008ZM104.672 127H103.52C103.04 127 102.656 126.76 102.368 126.28C102.08 125.8 101.936 125.32 101.936 124.84V70.984C101.936 69.544 102.464 68.824 103.52 68.824H104.672C105.92 68.824 106.544 69.544 106.544 70.984V124.84C106.544 126.28 105.92 127 104.672 127ZM161.017 127H159.865C158.617 127 157.993 126.328 157.993 124.984V80.92L144.025 113.608C143.545 114.472 142.777 114.904 141.721 114.904H140.425C139.369 114.904 138.649 114.472 138.265 113.608L124.297 80.632V124.984C124.297 125.464 124.153 125.944 123.865 126.424C123.577 126.808 123.097 127 122.425 127H121.273C119.929 127 119.257 126.328 119.257 124.984V70.984C119.257 69.544 119.929 68.824 121.273 68.824H123.433C124.297 68.824 124.873 69.208 125.161 69.976L141.145 107.416L156.841 69.976C157.129 69.208 157.753 68.824 158.713 68.824H161.017C161.689 68.824 162.169 69.064 162.457 69.544C162.745 70.024 162.889 70.504 162.889 70.984V124.984C162.889 125.464 162.745 125.944 162.457 126.424C162.169 126.808 161.689 127 161.017 127ZM201.835 127H178.795C177.643 127 177.067 126.328 177.067 124.984V70.984C177.067 69.544 177.643 68.824 178.795 68.824H201.835C203.083 68.824 203.707 69.496 203.707 70.84V71.992C203.707 72.664 203.467 73.192 202.987 73.576C202.603 73.864 202.219 74.008 201.835 74.008H181.675V94.744H199.963C200.347 94.744 200.731 94.936 201.115 95.32C201.595 95.608 201.835 96.136 201.835 96.904V97.912C201.835 99.256 201.211 99.928 199.963 99.928H181.675V121.816H201.835C203.083 121.816 203.707 122.488 203.707 123.832V124.984C203.707 125.656 203.467 126.184 202.987 126.568C202.603 126.856 202.219 127 201.835 127Z" fill="black"/>
<path d="M263 130H223V109.9L236.333 96.5L223 83.1V63H263V83.1L249.667 96.5L263 109.9V130ZM229.667 81.425L243 94.825L256.333 81.425V69.7H229.667V81.425ZM243 98.175L229.667 111.575V123.3H256.333V111.575L243 98.175ZM249.667 116.6H236.333V113.92L243 107.22L249.667 113.92V116.6Z" fill="white"/>
<mask id="mask0_15_2" style="mask-type:alpha" maskUnits="userSpaceOnUse" x="187" y="208" width="76" height="31">
<path d="M187 208H263V238.113H187V208Z" fill="white"/>
</mask>
<g mask="url(#mask0_15_2)">
<path fill-rule="evenodd" clip-rule="evenodd" d="M210.836 223.475L214.506 218.519H210.927L208.754 221.473L206.571 218.519H206.077H202.961H199.07V220.739C198.153 219.276 196.514 218.34 194.564 218.34C193.164 218.34 191.853 218.845 190.87 219.763C189.837 220.731 189.269 222.074 189.269 223.55C189.269 226.519 191.544 228.759 194.564 228.759C195.964 228.759 197.275 228.253 198.256 227.335C198.572 227.039 198.844 226.708 199.07 226.351V228.579H203.068H206.29H206.681L208.863 225.625L211.036 228.579H214.615L210.836 223.475ZM216.896 223.055C216.896 231.372 210.204 238.113 201.949 238.113C193.694 238.113 187 231.372 187 223.055C187 214.74 193.694 208 201.949 208C210.204 208 216.896 214.74 216.896 223.055ZM201.908 221.379V222.133V222.415H204.542L205.442 223.616L204.6 224.74H201.908V224.992V225.72H205.209L206.78 223.621L205.101 221.379H201.908ZM194.564 221.2C193.163 221.2 192.107 222.209 192.107 223.55C192.107 224.889 193.163 225.9 194.564 225.9C195.964 225.9 197.02 224.889 197.02 223.55C197.02 222.209 195.964 221.2 194.564 221.2ZM241.947 228.702H243.269V218.388H241.947V228.702ZM254.532 227.048L254.613 226.923L253.532 226.147L253.443 226.285C252.827 227.244 251.939 227.71 250.728 227.71C248.151 227.71 246.802 225.616 246.802 223.545C246.802 221.475 248.151 219.379 250.728 219.379C251.727 219.379 252.785 220.02 253.146 220.618L253.235 220.765L254.384 219.902L254.285 219.776C253.473 218.732 252.175 218.133 250.728 218.133C249.251 218.133 247.899 218.678 246.92 219.668C245.938 220.661 245.397 222.038 245.397 223.545C245.397 225.052 245.938 226.429 246.92 227.422C247.899 228.412 249.251 228.956 250.728 228.956C252.297 228.956 253.791 228.207 254.532 227.048ZM238.413 223.545C238.413 221.475 237.064 219.379 234.488 219.379C231.912 219.379 230.563 221.475 230.563 223.545C230.563 225.616 231.912 227.71 234.488 227.71C237.064 227.71 238.413 225.616 238.413 223.545ZM239.818 223.545C239.818 225.052 239.277 226.429 238.296 227.422C237.317 228.412 235.965 228.956 234.488 228.956C233.011 228.956 231.659 228.412 230.68 227.422C229.699 226.429 229.158 225.052 229.158 223.545C229.158 222.038 229.699 220.661 230.68 219.668C231.659 218.678 233.011 218.133 234.488 218.133C235.965 218.133 237.317 218.678 238.296 219.668C239.277 220.661 239.818 222.038 239.818 223.545ZM257.685 227.455V223.971H262.495V222.724H257.685V219.634H262.831V218.388H256.364V228.702H263V227.455H257.685ZM224.498 228.702L228.489 218.388H227.06L223.902 226.616L220.839 218.388H219.383L223.274 228.702H224.498ZM244.695 233.387C244.541 233.627 244.319 233.743 244.014 233.743C243.363 233.743 243.022 233.213 243.022 232.689C243.022 232.165 243.363 231.634 244.014 231.634C244.263 231.634 244.527 231.792 244.616 231.94L244.663 232.017L245.035 231.737L244.984 231.671C244.761 231.387 244.409 231.223 244.014 231.223C243.191 231.223 242.571 231.854 242.571 232.689C242.571 233.524 243.191 234.155 244.014 234.155C244.441 234.155 244.847 233.95 245.051 233.634L245.092 233.567L244.741 233.314L244.695 233.387ZM238.563 231.7H239.438V234.087H239.867V231.7H240.742V231.29H238.563V231.7ZM251.21 231.7H252.085V234.087H252.514V231.7H253.389V231.29H251.21V231.7ZM246.144 232.842H247.411V232.431H246.144V231.7H247.499V231.29H245.715V234.087H247.544V233.677H246.144V232.842ZM254.429 232.842H255.695V232.431H254.429V231.7H255.783V231.29H254V234.087H255.828V233.677H254.429V232.842ZM257.377 232.454C257.746 232.454 257.934 232.327 257.934 232.075C257.934 231.826 257.746 231.7 257.377 231.7H256.987V232.454H257.377ZM257.769 232.819L258.533 234.087H258.016L257.301 232.864H256.987V234.087H256.557V231.29H257.444C258.042 231.29 258.386 231.577 258.386 232.075C258.386 232.458 258.147 232.739 257.769 232.819ZM250.17 233.353L248.729 231.29H248.272V234.087H248.702V232.004L250.142 234.087H250.599V231.29H250.17V233.353ZM232.638 231.29H230.459V231.7H231.334V234.087H231.763V231.7H232.638V231.29ZM226.333 232.689C226.333 232.165 225.993 231.634 225.342 231.634C224.69 231.634 224.349 232.165 224.349 232.689C224.349 233.213 224.69 233.743 225.342 233.743C225.993 233.743 226.333 233.213 226.333 232.689ZM226.785 232.689C226.785 233.524 226.165 234.155 225.342 234.155C224.518 234.155 223.898 233.524 223.898 232.689C223.898 231.854 224.518 231.223 225.342 231.223C226.165 231.223 226.785 231.854 226.785 232.689ZM223.054 233.387C222.901 233.627 222.679 233.743 222.375 233.743C221.724 233.743 221.382 233.213 221.382 232.689C221.382 232.165 221.724 231.634 222.375 231.634C222.624 231.634 222.886 231.792 222.977 231.94L223.023 232.017L223.395 231.737L223.343 231.671C223.12 231.387 222.769 231.223 222.375 231.223C221.552 231.223 220.93 231.854 220.93 232.689C220.93 233.524 221.552 234.155 222.375 234.155C222.801 234.155 223.208 233.95 223.411 233.634L223.453 233.567L223.102 233.314L223.054 233.387ZM234.434 232.985L233.991 231.902L233.546 232.985H234.434ZM234.175 231.29L235.382 234.087H234.893L234.605 233.396H233.378L233.09 234.087H232.6L233.808 231.29H234.175ZM237.846 233.387C237.692 233.627 237.469 233.743 237.165 233.743C236.514 233.743 236.173 233.213 236.173 232.689C236.173 232.165 236.514 231.634 237.165 231.634C237.415 231.634 237.677 231.792 237.767 231.94L237.813 232.017L238.186 231.737L238.134 231.671C237.913 231.387 237.559 231.223 237.165 231.223C236.342 231.223 235.722 231.854 235.722 232.689C235.722 233.524 236.342 234.155 237.165 234.155C237.592 234.155 237.998 233.95 238.201 233.634L238.243 233.567L237.892 233.314L237.846 233.387ZM229.419 231.29H229.848V234.087H229.391L227.951 232.004V234.087H227.521V231.29H227.978L229.419 233.353V231.29Z" fill="#FEFEFE"/>
</g>
<path d="M92.5986 194H91.7586C90.7986 194 90.1986 193.6 89.9586 192.8L76.0386 170.24L69.9186 178.76V192.32C69.9186 192.72 69.7586 193.12 69.4386 193.52C69.1986 193.84 68.7986 194 68.2386 194H67.3986C66.2786 194 65.7186 193.44 65.7186 192.32V147.32C65.7186 146.12 66.2786 145.52 67.3986 145.52H68.2386C68.8786 145.52 69.3186 145.72 69.5586 146.12C69.7986 146.52 69.9186 146.92 69.9186 147.32V171.92L87.5586 146.72C88.1186 145.92 88.7186 145.52 89.3586 145.52H90.6786C91.3186 145.52 91.7186 145.88 91.8786 146.6C92.0386 147.24 91.9986 147.72 91.7586 148.04L78.7986 166.64L93.7986 191.48C94.1986 192.12 94.3186 192.72 94.1586 193.28C93.9986 193.76 93.4786 194 92.5986 194ZM124.347 194H105.147C104.187 194 103.707 193.44 103.707 192.32V147.32C103.707 146.12 104.187 145.52 105.147 145.52H124.347C125.387 145.52 125.907 146.08 125.907 147.2V148.16C125.907 148.72 125.707 149.16 125.307 149.48C124.987 149.72 124.667 149.84 124.347 149.84H107.547V167.12H122.787C123.107 167.12 123.427 167.28 123.747 167.6C124.147 167.84 124.347 168.28 124.347 168.92V169.76C124.347 170.88 123.827 171.44 122.787 171.44H107.547V189.68H124.347C125.387 189.68 125.907 190.24 125.907 191.36V192.32C125.907 192.88 125.707 193.32 125.307 193.64C124.987 193.88 124.667 194 124.347 194ZM157.745 194H138.545C137.585 194 137.105 193.44 137.105 192.32V147.32C137.105 146.12 137.585 145.52 138.545 145.52H157.745C158.785 145.52 159.305 146.08 159.305 147.2V148.16C159.305 148.72 159.105 149.16 158.705 149.48C158.385 149.72 158.065 149.84 157.745 149.84H140.945V167.12H156.185C156.505 167.12 156.825 167.28 157.145 167.6C157.545 167.84 157.745 168.28 157.745 168.92V169.76C157.745 170.88 157.225 171.44 156.185 171.44H140.945V189.68H157.745C158.785 189.68 159.305 190.24 159.305 191.36V192.32C159.305 192.88 159.105 193.32 158.705 193.64C158.385 193.88 158.065 194 157.745 194ZM186.224 176.24H174.104V192.32C174.104 192.72 173.984 193.12 173.744 193.52C173.504 193.84 173.104 194 172.544 194H171.584C170.544 194 170.024 193.44 170.024 192.32V147.32C170.024 146.12 170.544 145.52 171.584 145.52H186.224C189.264 145.52 191.624 146.52 193.304 148.52C194.984 150.44 195.824 153.12 195.824 156.56V165.2C195.824 168.56 194.984 171.24 193.304 173.24C191.624 175.24 189.264 176.24 186.224 176.24ZM191.984 156.56C191.984 152.08 190.064 149.84 186.224 149.84H174.104V171.8H186.224C188.064 171.8 189.464 171.28 190.424 170.24C191.464 169.12 191.984 167.4 191.984 165.08V156.56ZM227.472 194H208.272C207.312 194 206.832 193.44 206.832 192.32V147.32C206.832 146.12 207.312 145.52 208.272 145.52H227.472C228.512 145.52 229.032 146.08 229.032 147.2V148.16C229.032 148.72 228.832 149.16 228.432 149.48C228.112 149.72 227.792 149.84 227.472 149.84H210.672V167.12H225.912C226.232 167.12 226.552 167.28 226.872 167.6C227.272 167.84 227.472 168.28 227.472 168.92V169.76C227.472 170.88 226.952 171.44 225.912 171.44H210.672V189.68H227.472C228.512 189.68 229.032 190.24 229.032 191.36V192.32C229.032 192.88 228.832 193.32 228.432 193.64C228.112 193.88 227.792 194 227.472 194ZM264.83 194H263.51C262.71 194 262.19 193.68 261.95 193.04L254.27 174.56H243.59V192.32C243.59 193.44 242.99 194 241.79 194H241.07C240.67 194 240.27 193.92 239.87 193.76C239.55 193.52 239.39 193.04 239.39 192.32V147.2C239.39 146.08 239.95 145.52 241.07 145.52H255.47C258.59 145.52 260.99 146.48 262.67 148.4C264.43 150.24 265.31 152.96 265.31 156.56V163.52C265.31 166.16 264.75 168.36 263.63 170.12C262.59 171.8 260.83 173.2 258.35 174.32L265.91 191.72C265.99 192.04 266.03 192.52 266.03 193.16C266.11 193.72 265.71 194 264.83 194ZM261.35 156.56C261.35 152 259.39 149.72 255.47 149.72H243.59V170.24H255.47C259.39 170.24 261.35 168 261.35 163.52V156.56Z" fill="black"/>
</svg>
